<svg width="22" height="22" viewBox="0 0 22 22" fill="none" xmlns="http://www.w3.org/2000/svg">
<path d="M13 3.75C12.8019 3.74741 12.6126 3.66756 12.4725 3.52747C12.3324 3.38737 12.2526 3.19811 12.25 3V1C12.25 0.801088 12.329 0.610322 12.4697 0.46967C12.6103 0.329018 12.8011 0.25 13 0.25C13.1989 0.25 13.3897 0.329018 13.5303 0.46967C13.671 0.610322 13.75 0.801088 13.75 1V3C13.7474 3.19811 13.6676 3.38737 13.5275 3.52747C13.3874 3.66756 13.1981 3.74741 13 3.75Z" fill="white"/>
<path d="M17 3.75C16.8019 3.74741 16.6126 3.66756 16.4725 3.52747C16.3324 3.38737 16.2526 3.19811 16.25 3V1C16.25 0.801088 16.329 0.610322 16.4697 0.46967C16.6103 0.329018 16.8011 0.25 17 0.25C17.1989 0.25 17.3897 0.329018 17.5303 0.46967C17.671 0.610322 17.75 0.801088 17.75 1V3C17.7474 3.19811 17.6676 3.38737 17.5275 3.52747C17.3874 3.66756 17.1981 3.74741 17 3.75Z" fill="white"/>
<path d="M9 3.75C8.80189 3.74741 8.61263 3.66756 8.47253 3.52747C8.33244 3.38737 8.25259 3.19811 8.25 3V1C8.25 0.801088 8.32902 0.610322 8.46967 0.46967C8.61032 0.329018 8.80109 0.25 9 0.25C9.19891 0.25 9.38968 0.329018 9.53033 0.46967C9.67098 0.610322 9.75 0.801088 9.75 1V3C9.74741 3.19811 9.66756 3.38737 9.52747 3.52747C9.38737 3.66756 9.19811 3.74741 9 3.75Z" fill="white"/>
<path d="M5 3.75C4.80189 3.74741 4.61263 3.66756 4.47253 3.52747C4.33244 3.38737 4.25259 3.19811 4.25 3V1C4.25 0.801088 4.32902 0.610322 4.46967 0.46967C4.61032 0.329018 4.80109 0.25 5 0.25C5.19891 0.25 5.38968 0.329018 5.53033 0.46967C5.67098 0.610322 5.75 0.801088 5.75 1V3C5.74741 3.19811 5.66756 3.38737 5.52747 3.52747C5.38737 3.66756 5.19811 3.74741 5 3.75Z" fill="white"/>
<path d="M21.75 7.25V5C21.75 4.27065 21.4603 3.57118 20.9445 3.05546C20.4288 2.53973 19.7293 2.25 19 2.25H3C2.27065 2.25 1.57118 2.53973 1.05546 3.05546C0.539731 3.57118 0.25 4.27065 0.25 5V7.25H21.75Z" fill="white"/>
<path d="M0.25 8.75V19C0.25 19.7293 0.539731 20.4288 1.05546 20.9445C1.57118 21.4603 2.27065 21.75 3 21.75H19C19.7293 21.75 20.4288 21.4603 20.9445 20.9445C21.4603 20.4288 21.75 19.7293 21.75 19V8.75H0.25ZM5 18C4.80222 18 4.60888 17.9414 4.44443 17.8315C4.27998 17.7216 4.15181 17.5654 4.07612 17.3827C4.00043 17.2 3.98063 16.9989 4.01921 16.8049C4.0578 16.6109 4.15304 16.4327 4.29289 16.2929C4.43275 16.153 4.61093 16.0578 4.80491 16.0192C4.99889 15.9806 5.19996 16.0004 5.38268 16.0761C5.56541 16.1518 5.72159 16.28 5.83147 16.4444C5.94135 16.6089 6 16.8022 6 17C6 17.2652 5.89464 17.5196 5.70711 17.7071C5.51957 17.8946 5.26522 18 5 18ZM5 14C4.80222 14 4.60888 13.9414 4.44443 13.8315C4.27998 13.7216 4.15181 13.5654 4.07612 13.3827C4.00043 13.2 3.98063 12.9989 4.01921 12.8049C4.0578 12.6109 4.15304 12.4327 4.29289 12.2929C4.43275 12.153 4.61093 12.0578 4.80491 12.0192C4.99889 11.9806 5.19996 12.0004 5.38268 12.0761C5.56541 12.1518 5.72159 12.28 5.83147 12.4444C5.94135 12.6089 6 12.8022 6 13C6 13.2652 5.89464 13.5196 5.70711 13.7071C5.51957 13.8946 5.26522 14 5 14ZM9 18C8.80222 18 8.60888 17.9414 8.44443 17.8315C8.27998 17.7216 8.15181 17.5654 8.07612 17.3827C8.00043 17.2 7.98063 16.9989 8.01921 16.8049C8.0578 16.6109 8.15304 16.4327 8.29289 16.2929C8.43275 16.153 8.61093 16.0578 8.80491 16.0192C8.99889 15.9806 9.19996 16.0004 9.38268 16.0761C9.56541 16.1518 9.72159 16.28 9.83147 16.4444C9.94135 16.6089 10 16.8022 10 17C10 17.2652 9.89464 17.5196 9.70711 17.7071C9.51957 17.8946 9.26522 18 9 18ZM9 14C8.80222 14 8.60888 13.9414 8.44443 13.8315C8.27998 13.7216 8.15181 13.5654 8.07612 13.3827C8.00043 13.2 7.98063 12.9989 8.01921 12.8049C8.0578 12.6109 8.15304 12.4327 8.29289 12.2929C8.43275 12.153 8.61093 12.0578 8.80491 12.0192C8.99889 11.9806 9.19996 12.0004 9.38268 12.0761C9.56541 12.1518 9.72159 12.28 9.83147 12.4444C9.94135 12.6089 10 12.8022 10 13C10 13.2652 9.89464 13.5196 9.70711 13.7071C9.51957 13.8946 9.26522 14 9 14ZM13 18C12.8022 18 12.6089 17.9414 12.4444 17.8315C12.28 17.7216 12.1518 17.5654 12.0761 17.3827C12.0004 17.2 11.9806 16.9989 12.0192 16.8049C12.0578 16.6109 12.153 16.4327 12.2929 16.2929C12.4327 16.153 12.6109 16.0578 12.8049 16.0192C12.9989 15.9806 13.2 16.0004 13.3827 16.0761C13.5654 16.1518 13.7216 16.28 13.8315 16.4444C13.9414 16.6089 14 16.8022 14 17C14 17.2652 13.8946 17.5196 13.7071 17.7071C13.5196 17.8946 13.2652 18 13 18ZM13 14C12.8022 14 12.6089 13.9414 12.4444 13.8315C12.28 13.7216 12.1518 13.5654 12.0761 13.3827C12.0004 13.2 11.9806 12.9989 12.0192 12.8049C12.0578 12.6109 12.153 12.4327 12.2929 12.2929C12.4327 12.153 12.6109 12.0578 12.8049 12.0192C12.9989 11.9806 13.2 12.0004 13.3827 12.0761C13.5654 12.1518 13.7216 12.28 13.8315 12.4444C13.9414 12.6089 14 12.8022 14 13C14 13.2652 13.8946 13.5196 13.7071 13.7071C13.5196 13.8946 13.2652 14 13 14ZM17 18C16.8022 18 16.6089 17.9414 16.4444 17.8315C16.28 17.7216 16.1518 17.5654 16.0761 17.3827C16.0004 17.2 15.9806 16.9989 16.0192 16.8049C16.0578 16.6109 16.153 16.4327 16.2929 16.2929C16.4327 16.153 16.6109 16.0578 16.8049 16.0192C16.9989 15.9806 17.2 16.0004 17.3827 16.0761C17.5654 16.1518 17.7216 16.28 17.8315 16.4444C17.9414 16.6089 18 16.8022 18 17C18 17.2652 17.8946 17.5196 17.7071 17.7071C17.5196 17.8946 17.2652 18 17 18ZM17 14C16.8022 14 16.6089 13.9414 16.4444 13.8315C16.28 13.7216 16.1518 13.5654 16.0761 13.3827C16.0004 13.2 15.9806 12.9989 16.0192 12.8049C16.0578 12.6109 16.153 12.4327 16.2929 12.2929C16.4327 12.153 16.6109 12.0578 16.8049 12.0192C16.9989 11.9806 17.2 12.0004 17.3827 12.0761C17.5654 12.1518 17.7216 12.28 17.8315 12.4444C17.9414 12.6089 18 12.8022 18 13C18 13.2652 17.8946 13.5196 17.7071 13.7071C17.5196 13.8946 17.2652 14 17 14Z" fill="white"/>
</svg>
