<svg width="22" height="22" viewBox="0 0 22 22" fill="none" xmlns="http://www.w3.org/2000/svg">
<path d="M18.1 3.89998C14.2 -2.43187e-05 7.79999 -2.43187e-05 3.89999 3.89998C0.999995 6.79998 0.0999947 11.2 1.79999 14.9C1.89999 15.1 1.89999 15.3 1.89999 15.5L0.999995 19.8C0.899995 20.1 0.999995 20.5 1.29999 20.7C1.49999 20.9 1.69999 21 1.99999 21H2.19999L6.49999 20.1C6.69999 20.1 6.9 20.1 7.1 20.2C12.2 22.4 18.1 20 20.2 15C21.9 11.2 21 6.79998 18.1 3.89998ZM6.99999 12C6.39999 12 5.99999 11.6 5.99999 11C5.99999 10.4 6.39999 9.99998 6.99999 9.99998C7.59999 9.99998 7.99999 10.4 7.99999 11C7.99999 11.6 7.59999 12 6.99999 12ZM11 12C10.4 12 10 11.6 10 11C10 10.4 10.4 9.99998 11 9.99998C11.6 9.99998 12 10.4 12 11C12 11.6 11.6 12 11 12ZM15 12C14.4 12 14 11.6 14 11C14 10.4 14.4 9.99998 15 9.99998C15.6 9.99998 16 10.4 16 11C16 11.6 15.6 12 15 12Z" fill="white"/>
</svg>
