<svg width="24" height="24" viewBox="0 0 24 24" fill="none" xmlns="http://www.w3.org/2000/svg">
<g clip-path="url(#clip0_5_92)">
<path d="M12.6495 23.9222C25.7038 23.173 28.1308 4.78811 15.744 0.65964C12.3164 -0.487485 8.38638 0.0342809 5.38774 2.05708H5.38859C3.99886 2.98109 2.81827 4.18616 1.92296 5.59454C1.02765 7.00293 0.437511 8.58335 0.190618 10.2339L0.189868 10.2333C-0.98496 17.601 5.1971 24.4094 12.6495 23.9222ZM22.3112 16.3554C21.8851 17.3643 21.3123 18.3048 20.6115 19.1464C20.562 18.8515 20.6985 18.5098 20.4951 18.2345C20.2744 17.8042 20.07 17.3653 19.8401 16.9401C19.7546 16.782 19.7781 16.6912 19.9041 16.5774C21.2538 15.3932 20.0506 16.0228 20.1832 14.3303C20.188 14.2845 20.1789 14.2384 20.1572 14.1979C20.1354 14.1573 20.102 14.1243 20.0613 14.1029C19.4216 13.6945 18.5864 13.5542 17.9253 14.0081C17.1013 14.3975 15.926 14.0996 15.6595 13.1539C15.4237 12.5252 15.4527 11.8904 15.4465 11.2484C15.4845 10.9022 15.9594 10.8441 15.8824 10.4439C15.9007 9.93578 15.7351 9.39939 16.2156 9.06775C16.2524 9.03525 16.2963 9.01179 16.3437 8.99922C16.3912 8.98664 16.4409 8.98531 16.489 8.99533C16.9281 9.04843 17.3718 8.94495 17.7421 8.70311C18.1347 8.45416 18.6196 8.61531 19.0546 8.55864C19.2619 8.54387 19.4155 8.60477 19.5431 8.76616C19.7941 9.08303 20.1867 9.17608 20.5165 9.36855C20.6275 9.43328 20.687 9.35167 20.7391 9.28455C21.0162 8.92708 21.4408 8.80698 21.8131 8.60144C22.0159 8.48523 22.4225 8.92886 22.7686 8.94461C23.4584 11.359 23.2983 14.0466 22.3112 16.3554ZM22.1491 7.28139C21.7357 7.33577 22.0137 6.94309 21.8004 6.73764C21.5861 6.54647 21.3824 6.3439 21.19 6.1308C21.0904 6.02439 21.0259 6.00728 20.9107 6.12095C20.6014 6.42705 20.6187 6.39456 20.9795 6.76033C21.4007 7.22336 21.7182 7.21562 20.9561 7.53737C20.7826 7.61547 20.6188 7.79341 20.4296 7.5363C20.315 7.38072 20.159 7.27619 20.1776 7.03652C20.206 6.66695 19.9241 6.39902 19.7936 6.07994C19.7547 5.98473 19.6858 6.05181 19.6491 6.09869C19.3746 6.45156 18.96 6.58797 18.5845 6.784C17.9358 7.35119 18.0838 7.28941 17.223 7.26475C17.1433 7.26817 17.1199 7.17208 17.0853 7.11592C16.6519 6.40633 16.7359 6.23336 17.185 5.56347C17.3501 5.46437 18.08 5.57875 18.2179 5.72284C18.28 5.78753 18.3309 5.86291 18.4204 5.97569C18.4891 5.701 18.4543 5.49053 18.4614 5.2832C18.5778 4.43247 19.2926 4.81586 19.8001 4.63108C20.0399 4.44775 20.1384 4.35648 20.0875 4.26653C20.9359 5.15124 21.6324 6.16988 22.1491 7.28139ZM20.0181 4.19533C19.6717 3.96981 18.9022 3.73206 18.8817 3.17481C19.2835 3.48848 19.6632 3.82946 20.0181 4.19533ZM4.08781 4.08752C4.73349 3.44089 5.45591 2.87575 6.23895 2.4047C6.50524 2.54064 6.69523 3.04075 7.02926 2.86305C7.38551 2.67611 7.7652 2.52784 8.02095 2.19358C8.16584 2.01756 8.41938 2.15228 8.60862 2.09889C9.35262 1.99816 9.55376 2.84528 9.83206 3.34923C9.80749 3.36991 9.79456 3.38973 9.78387 3.38852C9.13831 3.31567 8.54637 3.52295 7.96132 3.74823C7.76913 3.82225 7.62101 3.82853 7.50077 3.64347C7.35218 3.41462 7.16126 3.40802 6.92421 3.50673C6.70465 3.66194 5.91579 3.68875 5.97031 4.00023C6.02384 4.29287 5.79279 4.79167 6.31807 4.69197C6.56421 4.60633 6.77581 5.33369 6.92623 4.91552C7.24901 3.6077 8.60979 4.74897 9.65904 3.91333C10.0451 3.6843 10.3625 4.4387 10.5125 4.70444C10.6265 4.95377 10.709 5.2473 11.1098 5.16034C10.8585 5.41178 10.6054 5.66153 10.3569 5.91569C10.2848 5.98942 10.2192 5.9658 10.1383 5.93767C9.82582 5.8292 9.50909 5.73278 9.1977 5.62127C9.04915 5.56806 8.9779 5.56286 8.98127 5.76189C9.23553 7.13064 8.06951 5.81055 7.25974 6.83702C6.24931 7.85252 7.03127 8.7047 5.64256 9.77228C5.55954 9.8485 5.49059 9.85769 5.40851 9.79741C4.80523 9.36916 3.44979 9.13647 2.99913 9.8365C2.99267 9.85759 2.99109 9.87987 2.99452 9.90166C2.99795 9.92345 3.00629 9.94418 3.01892 9.96227C3.26027 10.3491 3.27921 11 3.73746 10.351C3.87387 10.2348 4.03409 10.2739 4.17377 10.2971C4.32073 10.3216 4.24774 10.4772 4.24409 10.5677C4.26485 10.9286 4.78404 10.993 4.6819 11.3993C4.62363 11.6932 4.9939 11.5308 5.1566 11.5801C5.41962 11.618 5.61917 11.53 5.78778 11.3246C5.91565 11.1688 6.64967 11.063 6.8187 11.1632C6.95271 11.2982 7.00901 11.5092 7.10515 11.6741C7.26495 11.9948 7.27184 12.0012 7.50706 11.7478C8.04753 11.3236 8.80723 11.6592 9.32149 11.9538C9.72551 12.1802 9.59206 12.9881 10.1939 12.872C10.3095 12.8447 10.372 12.9432 10.4354 13.0146C10.8725 13.5494 11.5784 13.4854 11.8369 14.2188C12.0035 14.5246 11.9857 14.7927 11.8442 15.0953C11.7436 15.6637 11.4641 16.0825 10.8739 16.2417C10.4059 16.4098 11.1954 17.1734 10.1242 17.4779C9.84945 17.5377 9.81387 17.7482 9.84945 17.9949C9.96307 18.6304 9.80876 19.1101 9.10976 19.2775C8.90304 19.3458 8.93988 19.6207 8.84177 19.7773C8.35952 20.6562 8.7979 21.2974 9.41206 21.913C8.87299 21.9448 8.28879 21.9996 8.10246 21.4193C7.86968 20.7432 7.65903 20.0613 7.31384 19.4292C7.19792 19.2169 7.27254 18.9703 7.26954 18.7401C7.1854 17.7983 6.22362 17.0933 6.40427 16.0898C6.47431 15.5871 5.7574 16.3049 5.01513 15.3902C4.76773 15.0967 4.19206 14.3874 4.29148 14.0197C4.49468 13.5132 4.5161 12.9022 4.98523 12.5506C5.18506 12.3953 5.20324 11.9109 4.83054 12.0048C3.87317 12.165 4.07773 11.4456 3.51701 11.5822C3.13732 11.6226 2.86324 11.4981 2.56817 11.2325C1.68288 10.4183 1.4291 11.0215 0.921868 10.4179C1.26227 8.02012 2.3735 5.79817 4.08781 4.08752Z" fill="white"/>
</g>
<defs>
<clipPath id="clip0_5_92">
<rect width="24" height="24" fill="white"/>
</clipPath>
</defs>
</svg>
