<svg width="24" height="24" viewBox="0 0 24 24" fill="none" xmlns="http://www.w3.org/2000/svg">
<path d="M20.25 3.75H3.75C3.55986 3.74954 3.37664 3.82131 3.2374 3.9508C3.09817 4.08029 3.01331 4.25783 3 4.4475V13.5525C3.01331 13.7422 3.09817 13.9197 3.2374 14.0492C3.37664 14.1787 3.55986 14.2505 3.75 14.25H20.25C20.4401 14.2505 20.6234 14.1787 20.7626 14.0492C20.9018 13.9197 20.9867 13.7422 21 13.5525V4.4475C20.9867 4.25783 20.9018 4.08029 20.7626 3.9508C20.6234 3.82131 20.4401 3.74954 20.25 3.75Z" fill="white"/>
<path d="M23.1901 19.44L20.9401 15.36C20.869 15.2426 20.7671 15.1469 20.6455 15.0835C20.5238 15.02 20.387 14.9911 20.2501 15H3.7501C3.6139 14.9904 3.47765 15.0181 3.35606 15.0802C3.23446 15.1423 3.13213 15.2365 3.0601 15.3525L0.810104 19.4325C0.76161 19.5185 0.741317 19.6177 0.75208 19.7159C0.762843 19.8141 0.804119 19.9064 0.870104 19.98C0.949627 20.0675 1.04704 20.1369 1.15574 20.1835C1.26443 20.2301 1.38188 20.2528 1.5001 20.25H22.5001C22.6165 20.2526 22.7322 20.2306 22.8395 20.1854C22.9467 20.1401 23.0432 20.0727 23.1226 19.9875C23.1898 19.9148 23.2324 19.8228 23.2445 19.7246C23.2567 19.6264 23.2376 19.5268 23.1901 19.44ZM13.5001 18.75H10.5001C10.3012 18.75 10.1104 18.671 9.96977 18.5303C9.82912 18.3897 9.7501 18.1989 9.7501 18C9.7501 17.8011 9.82912 17.6103 9.96977 17.4696C10.1104 17.329 10.3012 17.25 10.5001 17.25H13.5001C13.699 17.25 13.8898 17.329 14.0304 17.4696C14.1711 17.6103 14.2501 17.8011 14.2501 18C14.2501 18.1989 14.1711 18.3897 14.0304 18.5303C13.8898 18.671 13.699 18.75 13.5001 18.75Z" fill="white"/>
</svg>
