<svg width="22" height="24" viewBox="0 0 22 24" fill="none" xmlns="http://www.w3.org/2000/svg">
<path d="M21.0737 6.17758C21.045 5.54619 21.045 4.9435 21.045 4.34081C21.045 3.85291 20.6719 3.47982 20.184 3.47982C16.5966 3.47982 13.8701 2.44664 11.6029 0.236771C11.2585 -0.0789238 10.7419 -0.0789238 10.3975 0.236771C8.13024 2.44664 5.40378 3.47982 1.81634 3.47982C1.32844 3.47982 0.955349 3.85291 0.955349 4.34081C0.955349 4.9435 0.955349 5.54619 0.926649 6.17758C0.811851 12.2045 0.639654 20.47 10.7132 23.9426L11.0002 24L11.2872 23.9426C21.332 20.47 21.1885 12.2332 21.0737 6.17758ZM10.3114 14.5291C10.1392 14.6726 9.93831 14.7587 9.70871 14.7587H9.68001C9.45042 14.7587 9.22082 14.6439 9.07732 14.4717L6.40826 11.5157L7.69974 10.3677L9.79481 12.6924L14.4441 8.27264L15.6208 9.53543L10.3114 14.5291Z" fill="white"/>
</svg>
