<svg width="35" height="35" viewBox="0 0 35 35" fill="none" xmlns="http://www.w3.org/2000/svg">
<path d="M17.2673 0C15.2499 0 13.3135 0.351064 11.512 0.989904V7.30312C13.2066 6.32032 15.1718 5.7544 17.2678 5.7544C23.6153 5.7544 28.7793 10.9185 28.7793 17.2659C28.7793 23.6134 23.6153 28.7775 17.2678 28.7775C15.1718 28.7775 13.2066 28.2115 11.512 27.2287V28.5281H5.7562V4.41038C2.22628 7.57402 0 12.1644 0 17.2674C0 26.7875 7.74723 34.5347 17.2673 34.5347C26.7903 34.5347 34.5347 26.7875 34.5347 17.2674C34.5347 7.74444 26.7903 0 17.2673 0Z" fill="#006EFF"/>
<path d="M17.2678 23.0218C20.4466 23.0218 23.0236 20.4448 23.0236 17.266C23.0236 14.0872 20.4466 11.5102 17.2678 11.5102C14.0889 11.5102 11.512 14.0872 11.512 17.266C11.512 20.4448 14.0889 23.0218 17.2678 23.0218Z" fill="#006EFF"/>
</svg>
